<svg width="1920" height="909" viewBox="0 0 1920 909" fill="none" xmlns="http://www.w3.org/2000/svg">
<path d="M1145 38.5001C1145 430.898 826.898 749 434.5 749C270.849 749 120.12 693.671 6.10352e-05 600.7C6.86646e-05 384 6.10352e-05 229.747 6.10352e-05 1.00017C269.5 1.00007 42.1017 1.00008 434.5 1.00008C814.319 1.00008 927.5 1.00003 1144.03 1C1144.67 13.4183 1145 25.921 1145 38.5001Z" fill="#0038FF" fill-opacity="0.13"/>
<path d="M987 37.9999C987 343.413 739.413 591 434 591C258.044 591 101.281 508.821 0 380.75C0 262.5 3.8147e-05 183.457 3.8147e-05 54C3.8147e-05 40.1877 1.94223e-05 11.5 2.00272e-05 4.23039e-06C110.593 -1.03298e-06 215.565 4.01124e-05 434 4.01124e-05C722.679 4.01124e-05 789.5 4.01124e-05 989.868 4.01124e-05C989.83 11.3166 988.89 23.9452 987 37.9999Z" fill="#0038FF" fill-opacity="0.13"/>
<path d="M858 0.999756C858 235.168 668.169 425 434 425C199.831 425 10.0001 235.168 10.0001 0.999756C184.5 1 211.331 1 445.5 1C679.669 1 607 0.999756 858 0.999756Z" fill="#0038FF" fill-opacity="0.13"/>
<path fill-rule="evenodd" clip-rule="evenodd" d="M1523.46 909H1920V712.641C1808.41 632.314 1671.46 585 1523.46 585C1278.51 585 1063.83 714.614 944.265 909H1179H1523.46Z" fill="#05E278" fill-opacity="0.27"/>
<path fill-rule="evenodd" clip-rule="evenodd" d="M1523 909H1920V888.865C1832.08 764.329 1687.04 683 1523 683C1350.28 683 1198.62 773.168 1112.52 909H1245H1523Z" fill="#05E278" fill-opacity="0.27"/>
<path fill-rule="evenodd" clip-rule="evenodd" d="M1523.5 909H1763.09C1711.02 832.352 1623.14 782 1523.5 782C1423.86 782 1335.98 832.352 1283.92 909H1493H1523.5Z" fill="#05E278" fill-opacity="0.27"/>
</svg>
