<svg width="1920" height="831" viewBox="0 0 1920 831" fill="none" xmlns="http://www.w3.org/2000/svg">
<path d="M-1.93359 0H1920V831H-1.93359V0Z" fill="black"/>
<path d="M1144.15 38.5001C1144.15 430.898 825.731 749 432.938 749C269.121 749 118.241 693.671 -2 600.7C-1.99999 384 -2 229.747 -2 1.00017C267.771 1.00007 40.144 1.00008 432.938 1.00008C813.139 1.00008 926.434 1.00003 1143.18 1C1143.83 13.4183 1144.15 25.921 1144.15 38.5001Z" fill="#0038FF" fill-opacity="0.13"/>
<path d="M985.994 37.9999C985.994 343.413 738.158 591 432.437 591C256.304 591 99.3833 508.821 -2 380.75C-2 262.5 -1.99996 183.457 -1.99996 54C-1.99996 40.1877 -1.99998 11.5 -1.99998 4.23039e-06C108.704 -1.03298e-06 213.782 4.01124e-05 432.437 4.01124e-05C721.406 4.01124e-05 788.295 4.01124e-05 988.865 4.01124e-05C988.827 11.3166 987.886 23.9452 985.994 37.9999Z" fill="#0038FF" fill-opacity="0.13"/>
<path d="M859.867 1C859.867 235.169 669.845 425 435.44 425C201.036 425 11.0132 235.169 11.0132 1C185.689 1.00024 212.547 1.00024 446.952 1.00024C681.356 1.00024 608.614 1 859.867 1Z" fill="#0038FF" fill-opacity="0.13"/>
<path fill-rule="evenodd" clip-rule="evenodd" d="M1523.2 831H1919.73V634.641C1808.14 554.314 1671.19 507 1523.2 507C1278.24 507 1063.56 636.614 944 831H1178.73H1523.2Z" fill="#05E278" fill-opacity="0.27"/>
<path fill-rule="evenodd" clip-rule="evenodd" d="M1522.74 831H1919.73V810.865C1831.81 686.329 1686.77 605 1522.74 605C1350.01 605 1198.35 695.168 1112.26 831H1244.73H1522.74Z" fill="#05E278" fill-opacity="0.27"/>
<path fill-rule="evenodd" clip-rule="evenodd" d="M1523.32 831H1762.91C1710.84 754.352 1622.96 704 1523.32 704C1423.68 704 1335.8 754.352 1283.73 831H1492.82H1523.32Z" fill="#05E278" fill-opacity="0.27"/>
</svg>
