<svg width="231" height="81" viewBox="0 0 231 81" fill="none" xmlns="http://www.w3.org/2000/svg">
<rect width="231" height="81" rx="20" fill="#2C3C54"/>
<path d="M75.3296 32.912C76.8176 32.912 78.1616 33.236 79.3616 33.884C80.5616 34.508 81.4976 35.456 82.1696 36.728C82.8656 38 83.2136 39.548 83.2136 41.372V53H79.9736V41.84C79.9736 39.872 79.4816 38.372 78.4976 37.34C77.5136 36.284 76.1696 35.756 74.4656 35.756C72.7376 35.756 71.3576 36.296 70.3256 37.376C69.3176 38.456 68.8136 40.028 68.8136 42.092V53H65.5376V26.36H68.8136V36.08C69.4616 35.072 70.3496 34.292 71.4776 33.74C72.6296 33.188 73.9136 32.912 75.3296 32.912ZM97.169 53.324C95.321 53.324 93.641 52.904 92.129 52.064C90.641 51.224 89.465 50.036 88.601 48.5C87.761 46.94 87.341 45.14 87.341 43.1C87.341 41.084 87.773 39.308 88.637 37.772C89.525 36.212 90.725 35.024 92.237 34.208C93.749 33.368 95.441 32.948 97.313 32.948C99.185 32.948 100.877 33.368 102.389 34.208C103.901 35.024 105.089 36.2 105.953 37.736C106.841 39.272 107.285 41.06 107.285 43.1C107.285 45.14 106.829 46.94 105.917 48.5C105.029 50.036 103.817 51.224 102.281 52.064C100.745 52.904 99.041 53.324 97.169 53.324ZM97.169 50.444C98.345 50.444 99.449 50.168 100.481 49.616C101.513 49.064 102.341 48.236 102.965 47.132C103.613 46.028 103.937 44.684 103.937 43.1C103.937 41.516 103.625 40.172 103.001 39.068C102.377 37.964 101.561 37.148 100.553 36.62C99.545 36.068 98.453 35.792 97.277 35.792C96.077 35.792 94.973 36.068 93.965 36.62C92.981 37.148 92.189 37.964 91.589 39.068C90.989 40.172 90.689 41.516 90.689 43.1C90.689 44.708 90.977 46.064 91.553 47.168C92.153 48.272 92.945 49.1 93.929 49.652C94.913 50.18 95.993 50.444 97.169 50.444ZM135.316 32.912C136.852 32.912 138.22 33.236 139.42 33.884C140.62 34.508 141.568 35.456 142.264 36.728C142.96 38 143.308 39.548 143.308 41.372V53H140.068V41.84C140.068 39.872 139.576 38.372 138.592 37.34C137.632 36.284 136.324 35.756 134.668 35.756C132.964 35.756 131.608 36.308 130.6 37.412C129.592 38.492 129.088 40.064 129.088 42.128V53H125.848V41.84C125.848 39.872 125.356 38.372 124.372 37.34C123.412 36.284 122.104 35.756 120.448 35.756C118.744 35.756 117.388 36.308 116.38 37.412C115.372 38.492 114.868 40.064 114.868 42.128V53H111.592V33.272H114.868V36.116C115.516 35.084 116.38 34.292 117.46 33.74C118.564 33.188 119.776 32.912 121.096 32.912C122.752 32.912 124.216 33.284 125.488 34.028C126.76 34.772 127.708 35.864 128.332 37.304C128.884 35.912 129.796 34.832 131.068 34.064C132.34 33.296 133.756 32.912 135.316 32.912ZM166.682 42.38C166.682 43.004 166.646 43.664 166.574 44.36H150.806C150.926 46.304 151.586 47.828 152.786 48.932C154.01 50.012 155.486 50.552 157.214 50.552C158.63 50.552 159.806 50.228 160.742 49.58C161.702 48.908 162.374 48.02 162.758 46.916H166.286C165.758 48.812 164.702 50.36 163.118 51.56C161.534 52.736 159.566 53.324 157.214 53.324C155.342 53.324 153.662 52.904 152.174 52.064C150.71 51.224 149.558 50.036 148.718 48.5C147.878 46.94 147.458 45.14 147.458 43.1C147.458 41.06 147.866 39.272 148.682 37.736C149.498 36.2 150.638 35.024 152.102 34.208C153.59 33.368 155.294 32.948 157.214 32.948C159.086 32.948 160.742 33.356 162.182 34.172C163.622 34.988 164.726 36.116 165.494 37.556C166.286 38.972 166.682 40.58 166.682 42.38ZM163.298 41.696C163.298 40.448 163.022 39.38 162.47 38.492C161.918 37.58 161.162 36.896 160.202 36.44C159.266 35.96 158.222 35.72 157.07 35.72C155.414 35.72 153.998 36.248 152.822 37.304C151.67 38.36 151.01 39.824 150.842 41.696H163.298Z" fill="white"/>
</svg>
