<svg width="463" height="139" viewBox="0 0 463 139" fill="none" xmlns="http://www.w3.org/2000/svg">
<rect y="22" width="463" height="101" rx="33" fill="#014D54"/>
<g filter="url(#filter0_d)">
<rect x="204.472" y="56.7358" width="42.2642" height="42.2642" rx="9" fill="white"/>
<path d="M223.584 40.8395C224.729 39.7969 226.479 39.7969 227.624 40.8395L251.574 62.6498C253.6 64.4953 252.295 67.8679 249.554 67.8679H201.654C198.913 67.8679 197.607 64.4953 199.634 62.6499L223.584 40.8395Z" fill="white"/>
<path fill-rule="evenodd" clip-rule="evenodd" d="M227.149 68.9985C226.393 68.2963 225.228 68.2835 224.458 68.9687L219.946 72.9808C219.499 73.3786 219.289 73.8877 219.273 74.3935C218.878 74.7588 218.632 75.281 218.632 75.8607V88.4196C218.632 89.5242 219.527 90.4196 220.632 90.4196H230.576C231.681 90.4196 232.576 89.5242 232.576 88.4196V75.8607C232.576 75.3684 232.398 74.9177 232.103 74.5692C232.133 74.0211 231.939 73.4526 231.464 73.0106L227.149 68.9985Z" fill="#415A5C"/>
</g>
<path d="M313.211 56.332V87H309.207V73.096H293.587V87H289.583V56.332H293.587V69.796H309.207V56.332H313.211ZM333.952 87.308C331.106 87.308 328.51 86.648 326.164 85.328C323.817 83.9787 321.954 82.116 320.576 79.74C319.226 77.3347 318.552 74.636 318.552 71.644C318.552 68.652 319.226 65.968 320.576 63.592C321.954 61.1867 323.817 59.324 326.164 58.004C328.51 56.6547 331.106 55.98 333.952 55.98C336.826 55.98 339.437 56.6547 341.784 58.004C344.13 59.324 345.978 61.172 347.328 63.548C348.677 65.924 349.352 68.6227 349.352 71.644C349.352 74.6653 348.677 77.364 347.328 79.74C345.978 82.116 344.13 83.9787 341.784 85.328C339.437 86.648 336.826 87.308 333.952 87.308ZM333.952 83.832C336.093 83.832 338.014 83.3333 339.716 82.336C341.446 81.3387 342.796 79.916 343.764 78.068C344.761 76.22 345.26 74.0787 345.26 71.644C345.26 69.18 344.761 67.0387 343.764 65.22C342.796 63.372 341.461 61.9493 339.76 60.952C338.058 59.9547 336.122 59.456 333.952 59.456C331.781 59.456 329.845 59.9547 328.144 60.952C326.442 61.9493 325.093 63.372 324.096 65.22C323.128 67.0387 322.644 69.18 322.644 71.644C322.644 74.0787 323.128 76.22 324.096 78.068C325.093 79.916 326.442 81.3387 328.144 82.336C329.874 83.3333 331.81 83.832 333.952 83.832ZM385.746 56.552V87H381.742V64.296L371.622 87H368.806L358.642 64.252V87H354.638V56.552H358.95L370.214 81.72L381.478 56.552H385.746ZM396.54 59.588V69.84H407.716V73.14H396.54V83.7H409.036V87H392.536V56.288H409.036V59.588H396.54ZM416.371 87.264C415.608 87.264 414.963 87 414.435 86.472C413.907 85.944 413.643 85.2987 413.643 84.536C413.643 83.7733 413.907 83.128 414.435 82.6C414.963 82.072 415.608 81.808 416.371 81.808C417.104 81.808 417.72 82.072 418.219 82.6C418.747 83.128 419.011 83.7733 419.011 84.536C419.011 85.2987 418.747 85.944 418.219 86.472C417.72 87 417.104 87.264 416.371 87.264Z" fill="white"/>
<path d="M55.4569 87.308C52.6116 87.308 50.0156 86.648 47.6689 85.328C45.3223 83.9787 43.4596 82.116 42.0809 79.74C40.7316 77.3347 40.0569 74.636 40.0569 71.644C40.0569 68.652 40.7316 65.968 42.0809 63.592C43.4596 61.1867 45.3223 59.324 47.6689 58.004C50.0156 56.6547 52.6116 55.98 55.4569 55.98C58.3316 55.98 60.9423 56.6547 63.2889 58.004C65.6356 59.324 67.4836 61.172 68.8329 63.548C70.1823 65.924 70.8569 68.6227 70.8569 71.644C70.8569 74.6653 70.1823 77.364 68.8329 79.74C67.4836 82.116 65.6356 83.9787 63.2889 85.328C60.9423 86.648 58.3316 87.308 55.4569 87.308ZM55.4569 83.832C57.5983 83.832 59.5196 83.3333 61.2209 82.336C62.9516 81.3387 64.3009 79.916 65.2689 78.068C66.2663 76.22 66.7649 74.0787 66.7649 71.644C66.7649 69.18 66.2663 67.0387 65.2689 65.22C64.3009 63.372 62.9663 61.9493 61.2649 60.952C59.5636 59.9547 57.6276 59.456 55.4569 59.456C53.2863 59.456 51.3503 59.9547 49.6489 60.952C47.9476 61.9493 46.5983 63.372 45.6009 65.22C44.6329 67.0387 44.1489 69.18 44.1489 71.644C44.1489 74.0787 44.6329 76.22 45.6009 78.068C46.5983 79.916 47.9476 81.3387 49.6489 82.336C51.3796 83.3333 53.3156 83.832 55.4569 83.832ZM100.255 87H96.2508L80.1468 62.58V87H76.1428V56.288H80.1468L96.2508 80.664V56.288H100.255V87ZM125.956 56.332V59.588H117.596V87H113.592V59.588H105.188V56.332H125.956ZM144.789 87.308C141.944 87.308 139.348 86.648 137.001 85.328C134.654 83.9787 132.792 82.116 131.413 79.74C130.064 77.3347 129.389 74.636 129.389 71.644C129.389 68.652 130.064 65.968 131.413 63.592C132.792 61.1867 134.654 59.324 137.001 58.004C139.348 56.6547 141.944 55.98 144.789 55.98C147.664 55.98 150.274 56.6547 152.621 58.004C154.968 59.324 156.816 61.172 158.165 63.548C159.514 65.924 160.189 68.6227 160.189 71.644C160.189 74.6653 159.514 77.364 158.165 79.74C156.816 82.116 154.968 83.9787 152.621 85.328C150.274 86.648 147.664 87.308 144.789 87.308ZM144.789 83.832C146.93 83.832 148.852 83.3333 150.553 82.336C152.284 81.3387 153.633 79.916 154.601 78.068C155.598 76.22 156.097 74.0787 156.097 71.644C156.097 69.18 155.598 67.0387 154.601 65.22C153.633 63.372 152.298 61.9493 150.597 60.952C148.896 59.9547 146.96 59.456 144.789 59.456C142.618 59.456 140.682 59.9547 138.981 60.952C137.28 61.9493 135.93 63.372 134.933 65.22C133.965 67.0387 133.481 69.18 133.481 71.644C133.481 74.0787 133.965 76.22 134.933 78.068C135.93 79.916 137.28 81.3387 138.981 82.336C140.712 83.3333 142.648 83.832 144.789 83.832Z" fill="white"/>
<defs>
<filter id="filter0_d" x="158.648" y="0.0575562" width="133.912" height="138.942" filterUnits="userSpaceOnUse" color-interpolation-filters="sRGB">
<feFlood flood-opacity="0" result="BackgroundImageFix"/>
<feColorMatrix in="SourceAlpha" type="matrix" values="0 0 0 0 0 0 0 0 0 0 0 0 0 0 0 0 0 0 127 0"/>
<feOffset/>
<feGaussianBlur stdDeviation="20"/>
<feColorMatrix type="matrix" values="0 0 0 0 1 0 0 0 0 1 0 0 0 0 1 0 0 0 1 0"/>
<feBlend mode="normal" in2="BackgroundImageFix" result="effect1_dropShadow"/>
<feBlend mode="normal" in="SourceGraphic" in2="effect1_dropShadow" result="shape"/>
</filter>
</defs>
</svg>
